<svg xmlns="http://www.w3.org/2000/svg" version="1.1" xmlns:xlink="http://www.w3.org/1999/xlink" xmlns:svgjs="http://svgjs.dev/svgjs" viewBox="0 0 800 800"><defs><linearGradient x1="50%" y1="0%" x2="50%" y2="100%" id="nnneon-grad"><stop stop-color="hsl(181, 100%, 54%)" stop-opacity="1" offset="0%"></stop><stop stop-color="hsl(234, 87%, 61%)" stop-opacity="1" offset="100%"></stop></linearGradient><filter id="nnneon-filter" x="-100%" y="-100%" width="400%" height="400%" filterUnits="objectBoundingBox" primitiveUnits="userSpaceOnUse" color-interpolation-filters="sRGB">
	<feGaussianBlur stdDeviation="17 8" x="0%" y="0%" width="100%" height="100%" in="SourceGraphic" edgeMode="none" result="blur"></feGaussianBlur></filter><filter id="nnneon-filter2" x="-100%" y="-100%" width="400%" height="400%" filterUnits="objectBoundingBox" primitiveUnits="userSpaceOnUse" color-interpolation-filters="sRGB">
	<feGaussianBlur stdDeviation="10 17" x="0%" y="0%" width="100%" height="100%" in="SourceGraphic" edgeMode="none" result="blur"></feGaussianBlur></filter></defs><g stroke-width="22" stroke="url(#nnneon-grad)" fill="none"><path d="M383.82013025506996 184.43934702508452C390.44876696016934 171.04487960900693 409.55122709452695 171.04487960900693 416.17986379962633 184.43934702508452L621.6044202076298 599.5486947604911C627.5416713304708 611.5459495377488 618.8118001142777 625.6065299560546 605.4263586196396 625.6065299560546H194.5736354350567C181.1881939404184 625.6065299560546 172.45832272422558 611.5459495377488 178.39557384706643 599.5486947604911L383.82013025506996 184.43934702508452Z " filter="url(#nnneon-filter)"></path><path d="M395.82013025506996 184.43934702508452C402.44876696016934 171.04487960900693 421.55122709452695 171.04487960900693 428.17986379962633 184.43934702508452L633.6044202076298 599.5486947604911C639.5416713304708 611.5459495377488 630.8118001142777 625.6065299560546 617.4263586196396 625.6065299560546H206.5736354350567C193.1881939404184 625.6065299560546 184.45832272422558 611.5459495377488 190.39557384706643 599.5486947604911L395.82013025506996 184.43934702508452Z " filter="url(#nnneon-filter2)" opacity="0.25"></path><path d="M371.82013025506996 184.43934702508452C378.44876696016934 171.04487960900693 397.55122709452695 171.04487960900693 404.17986379962633 184.43934702508452L609.6044202076298 599.5486947604911C615.5416713304708 611.5459495377488 606.8118001142777 625.6065299560546 593.4263586196396 625.6065299560546H182.5736354350567C169.1881939404184 625.6065299560546 160.45832272422558 611.5459495377488 166.39557384706643 599.5486947604911L371.82013025506996 184.43934702508452Z " filter="url(#nnneon-filter2)" opacity="0.25"></path><path d="M383.82013025506996 184.43934702508452C390.44876696016934 171.04487960900693 409.55122709452695 171.04487960900693 416.17986379962633 184.43934702508452L621.6044202076298 599.5486947604911C627.5416713304708 611.5459495377488 618.8118001142777 625.6065299560546 605.4263586196396 625.6065299560546H194.5736354350567C181.1881939404184 625.6065299560546 172.45832272422558 611.5459495377488 178.39557384706643 599.5486947604911L383.82013025506996 184.43934702508452Z "></path></g></svg>